<?xml version="1.0" encoding="UTF-8"?>
<svg version="1.1" xmlns="http://www.w3.org/2000/svg" width="48" height="48">
<path d="M0 0 C3.5821801 -0.32157358 6.57029275 -0.12724644 10 1 C13.54594032 4.26737218 16.17814251 8.10795684 19 12 C20.49844533 13.74860315 22.01765373 15.47975254 23.5625 17.1875 C24.22378906 17.92355469 24.88507812 18.65960937 25.56640625 19.41796875 C26.27603516 20.20107422 26.27603516 20.20107422 27 21 C28.32 20.67 29.64 20.34 31 20 C31.12375 20.5775 31.2475 21.155 31.375 21.75 C32.32893668 25.18417205 32.96407491 27.3906323 36.125 29.25 C36.74375 29.4975 37.3625 29.745 38 30 C37.63803085 32.67857172 37.26012724 34.60980914 35.75 36.875 C34 38 34 38 31.4375 37.9375 C29 37 29 37 27.875 35 C27.58625 34.34 27.2975 33.68 27 33 C24.66682784 32.22227595 22.38564077 31.57584432 20 31 C20.33 29.68 20.66 28.36 21 27 C19.35819979 25.47481363 17.7112984 23.95511828 16.0625 22.4375 C15.56830566 21.97859375 15.07411133 21.5196875 14.56494141 21.046875 C11.48737859 18.22700994 8.34750181 15.83177658 4.875 13.5 C2.20229335 11.5133357 1.16744245 10.57132374 0.22265625 7.34765625 C-0.03223914 4.8580616 -0.12561649 2.49725579 0 0 Z " fill="#CDD0E9" transform="translate(5,5)"/>
<path d="M0 0 C0.99 0.33 1.98 0.66 3 1 C2.9175 1.763125 2.835 2.52625 2.75 3.3125 C2.71072762 6.11868549 2.71072762 6.11868549 4.875 7.75 C6.2250006 8.544118 7.59910743 9.29955371 9 10 C8.63803085 12.67857172 8.26012724 14.60980914 6.75 16.875 C5 18 5 18 2.4375 17.9375 C0 17 0 17 -1.125 15 C-1.41375 14.34 -1.7025 13.68 -2 13 C-4.33317216 12.22227595 -6.61435923 11.57584432 -9 11 C-7.6618467 6.9855401 -5.23686108 5.64233558 -2 3 C-1.34 2.01 -0.68 1.02 0 0 Z " fill="#F9B848" transform="translate(34,25)"/>
<path d="M0 0 C5.37322976 4.51068498 10.48975137 9.21495634 15.5 14.125 C16.23992188 14.82753906 16.97984375 15.53007812 17.7421875 16.25390625 C18.43570312 16.93582031 19.12921875 17.61773438 19.84375 18.3203125 C20.47474609 18.93148926 21.10574219 19.54266602 21.75585938 20.17236328 C23 22 23 22 22.69726562 24.22998047 C22.46716797 24.81408691 22.23707031 25.39819336 22 26 C16.28597302 21.93425003 11.13937379 17.49047069 6.03808594 12.69604492 C3.24540613 10.03758273 3.24540613 10.03758273 0 8 C0 5.36 0 2.72 0 0 Z " fill="#ACB4DD" transform="translate(6,7)"/>
<path d="M0 0 C2.475 0.99 2.475 0.99 5 2 C4.63803085 4.67857172 4.26012724 6.60980914 2.75 8.875 C1 10 1 10 -1.6875 9.6875 C-2.450625 9.460625 -3.21375 9.23375 -4 9 C-4.33 7.68 -4.66 6.36 -5 5 C-3.68 5.33 -2.36 5.66 -1 6 C-1 5.34 -1 4.68 -1 4 C-0.34 4 0.32 4 1 4 C0.67 2.68 0.34 1.36 0 0 Z " fill="#F8BC5B" transform="translate(38,33)"/>
<path d="M0 0 C1.32 0.33 2.64 0.66 4 1 C4.33 2.32 4.66 3.64 5 5 C4.34 5 3.68 5 3 5 C3 5.66 3 6.32 3 7 C1.68 6.67 0.36 6.34 -1 6 C-1.33 4.68 -1.66 3.36 -2 2 C-1.34 2 -0.68 2 0 2 C0 1.34 0 0.68 0 0 Z " fill="#E2610A" transform="translate(34,32)"/>
<path d="M0 0 C0.66 0 1.32 0 2 0 C1.43628586 3.26954202 0.50037734 4.82575883 -2 7 C-2.99 6.67 -3.98 6.34 -5 6 C-3.38405168 3.95880212 -1.7143618 1.95927063 0 0 Z " fill="#FECC53" transform="translate(41,36)"/>
</svg>
