<?xml version="1.0" encoding="UTF-8"?>
<svg version="1.1" xmlns="http://www.w3.org/2000/svg" width="48" height="48">
<path d="M0 0 C0.32157358 3.5821801 0.12724644 6.57029275 -1 10 C-4.26737218 13.54594032 -8.10795684 16.17814251 -12 19 C-13.74860315 20.49844533 -15.47975254 22.01765373 -17.1875 23.5625 C-17.92355469 24.22378906 -18.65960937 24.88507812 -19.41796875 25.56640625 C-20.20107422 26.27603516 -20.20107422 26.27603516 -21 27 C-20.67 28.32 -20.34 29.64 -20 31 C-20.5775 31.12375 -21.155 31.2475 -21.75 31.375 C-25.18417205 32.32893668 -27.3906323 32.96407491 -29.25 36.125 C-29.4975 36.74375 -29.745 37.3625 -30 38 C-32.67857172 37.63803085 -34.60980914 37.26012724 -36.875 35.75 C-38 34 -38 34 -37.9375 31.4375 C-37 29 -37 29 -35 27.875 C-34.34 27.58625 -33.68 27.2975 -33 27 C-32.22227595 24.66682784 -31.57584432 22.38564077 -31 20 C-29.68 20.33 -28.36 20.66 -27 21 C-21.51257813 15.0930167 -16.23786214 9.27054905 -11.5703125 2.6796875 C-8.40387104 -0.70730212 -4.38387475 -0.09963352 0 0 Z " fill="#A0A9DA" transform="translate(43,5)"/>
<path d="M0 0 C3.21524305 1.40844718 5.32183868 3.10344786 7.75 5.625 C8.67039062 6.57246094 8.67039062 6.57246094 9.609375 7.5390625 C10.06828125 8.02117188 10.5271875 8.50328125 11 9 C10.67 9.99 10.34 10.98 10 12 C9.236875 11.9175 8.47375 11.835 7.6875 11.75 C4.88131451 11.71072762 4.88131451 11.71072762 3.25 13.875 C2.455882 15.2250006 1.70044629 16.59910743 1 18 C-1.67857172 17.63803085 -3.60980914 17.26012724 -5.875 15.75 C-7 14 -7 14 -6.9375 11.4375 C-6 9 -6 9 -4 7.875 C-3.34 7.58625 -2.68 7.2975 -2 7 C-1.22227595 4.66682784 -0.57584432 2.38564077 0 0 Z " fill="#D54E00" transform="translate(12,25)"/>
<path d="M0 0 C-4.67466337 5.62303757 -9.67765667 10.79741554 -14.875 15.9375 C-15.65875 16.71673828 -16.4425 17.49597656 -17.25 18.29882812 C-19.16438581 20.20154085 -21.08108034 22.10186171 -23 24 C-23.99 23.67 -24.98 23.34 -26 23 C-24.70977448 20.2139323 -23.30620729 17.99451961 -21.28515625 15.6875 C-20.76373047 15.08679687 -20.24230469 14.48609375 -19.70507812 13.8671875 C-19.16302734 13.25101563 -18.62097656 12.63484375 -18.0625 12 C-16.98976315 10.77181266 -15.91811687 9.54267176 -14.84765625 8.3125 C-14.34782227 7.73918945 -13.84798828 7.16587891 -13.33300781 6.57519531 C-12.24981774 5.29520587 -11.23303537 3.9592409 -10.23828125 2.609375 C-9 1 -9 1 -7.125 0.25 C-4.73068929 -0.03168361 -2.40866079 -0.06690724 0 0 Z " fill="#C5CAE9" transform="translate(42,5)"/>
<path d="M0 0 C3.21524305 1.40844718 5.32183868 3.10344786 7.75 5.625 C8.67039062 6.57246094 8.67039062 6.57246094 9.609375 7.5390625 C10.29773438 8.26222656 10.29773438 8.26222656 11 9 C10.67 9.99 10.34 10.98 10 12 C6.83987387 11.66141506 6.04567887 11.05398412 3.9375 8.5625 C3.298125 7.716875 2.65875 6.87125 2 6 C1.01 5.34 0.02 4.68 -1 4 C-0.67 2.68 -0.34 1.36 0 0 Z " fill="#FBB107" transform="translate(12,25)"/>
<path d="M0 0 C1.17539996 0.92652701 2.34010577 1.86663387 3.5 2.8125 C4.1496875 3.33457031 4.799375 3.85664062 5.46875 4.39453125 C7 6 7 6 7 9 C4.32142828 8.63803085 2.39019086 8.26012724 0.125 6.75 C-1 5 -1 5 -0.6875 2.3125 C-0.460625 1.549375 -0.23375 0.78625 0 0 Z " fill="#FDB500" transform="translate(6,34)"/>
<path d="M0 0 C0.99 0.33 1.98 0.66 3 1 C1.95125002 3.62187494 1.35068687 4.79371361 -1.125 6.25 C-1.74375 6.4975 -2.3625 6.745 -3 7 C-3 3 -3 3 -1.5 1.25 C-1.005 0.8375 -0.51 0.425 0 0 Z " fill="#ED6B00" transform="translate(12,30)"/>
</svg>
